<svg width="21" height="20" viewBox="0 0 21 20" fill="none" xmlns="http://www.w3.org/2000/svg">
<g id="fi-ss-cross-circle" clip-path="url(#clip0_660_2135)">
<path id="Vector" d="M10.5001 0C8.47154 0 6.48857 0.58649 4.80191 1.6853C3.11525 2.78412 1.80066 4.3459 1.02438 6.17317C0.248096 8.00043 0.0449851 10.0111 0.440731 11.9509C0.836477 13.8907 1.81331 15.6725 3.24769 17.0711C4.68207 18.4696 6.50959 19.422 8.49914 19.8079C10.4887 20.1937 12.5509 19.9957 14.425 19.2388C16.2991 18.4819 17.901 17.2002 19.028 15.5557C20.1549 13.9112 20.7565 11.9778 20.7565 10C20.7565 7.34784 19.6759 4.8043 17.7524 2.92893C15.829 1.05357 13.2202 0 10.5001 0V0ZM14.5231 12.7442L13.3146 13.9225L10.5001 11.1783L7.68554 13.9225L6.47699 12.7442L9.29152 10L6.47699 7.25583L7.68554 6.0775L10.5001 8.82167L13.3146 6.0775L14.5231 7.25583L11.7086 10L14.5231 12.7442Z" fill="#1A1A1A"/>
</g>
<defs>
<clipPath id="clip0_660_2135">
<rect width="20.5128" height="20" fill="white" transform="translate(0.243652)"/>
</clipPath>
</defs>
</svg>
