<svg width="28" height="50" viewBox="0 0 28 50" fill="none" xmlns="http://www.w3.org/2000/svg">
<path id="image 3 (Traced)" fill-rule="evenodd" clip-rule="evenodd" d="M13.2675 1.41022C11.5828 4.84733 11.3522 6.17294 11.8474 9.57558C12.3601 13.0995 12.6386 17.0965 12.6417 20.979L12.6429 22.4238L12.2986 22.8941C11.0513 24.5987 9.70936 27.0001 8.92257 28.9357C8.75128 29.357 8.60572 29.7114 8.59893 29.7233C8.59222 29.7351 8.302 29.6402 7.95407 29.5122C7.253 29.2545 6.69636 28.9231 6.43593 28.6083C5.87579 27.9315 5.99221 26.9564 6.68007 26.5634C6.9605 26.4031 7.06557 26.3862 7.80893 26.3815L8.62857 26.3763L8.67143 26.1675C8.73914 25.8374 8.72107 23.2302 8.63971 21.5886C8.34507 15.6432 7.15264 11.6183 4.90236 8.97291C4.42971 8.41732 3.65436 7.75497 2.97457 7.32626C2.56764 7.06964 0.815857 6.23409 0.160714 5.98422L0 5.92293V22.0075V38.0922L3.76021 38.1102L7.5205 38.1282L7.68207 38.8246C8.18622 40.9971 9.1465 42.6807 10.945 44.5455C12.057 45.6986 12.3554 46.1866 13.2555 48.3261C13.6434 49.2478 13.9776 50.001 13.9982 50C14.0189 49.9989 14.3529 49.2463 14.7406 48.3274C15.6311 46.2173 15.9523 45.6866 16.9839 44.6208C18.1773 43.388 18.7496 42.6228 19.3453 41.4638C19.7824 40.6135 20.1051 39.7371 20.3175 38.8246L20.4795 38.1282L24.2398 38.1102L28 38.0922V22.0075V5.92293L27.8393 5.98422C27.0818 6.27316 25.3785 7.10007 24.9059 7.4083C23.5474 8.2944 22.488 9.52008 21.6182 11.2121C20.2942 13.7877 19.5858 17.0599 19.3565 21.6582C19.2822 23.1483 19.2653 26.1216 19.3302 26.2865C19.3542 26.3475 19.6091 26.3764 20.1964 26.3849C20.9311 26.3955 21.0626 26.4163 21.3186 26.5626C21.7506 26.8094 21.9566 27.2105 21.9099 27.7137C21.8895 27.9328 21.8241 28.2035 21.7646 28.315C21.5866 28.6489 21.1627 29.0115 20.6786 29.2438C20.2534 29.4479 19.4153 29.7588 19.397 29.7193C19.3925 29.7097 19.2496 29.357 19.0796 28.9357C18.3906 27.229 17.2243 25.1029 16.0297 23.3762L15.3571 22.4039L15.3576 20.9691C15.3589 17.0619 15.6332 13.1303 16.1549 9.54076C16.5528 6.80235 16.4331 5.42633 15.6126 3.30793C15.3859 2.72288 14.0586 0 14 0C13.9773 0 13.6477 0.634565 13.2675 1.41022ZM3.21929 11.2295C4.83729 13.4622 5.77314 17.3063 5.90222 22.2502L5.94593 23.9215L5.45507 24.1639C4.81593 24.4794 4.11479 25.1594 3.78429 25.7842L3.53571 26.254L3.125 26.2542L2.71429 26.2545V18.4896C2.71429 13.4978 2.73914 10.7247 2.78386 10.7247C2.82214 10.7247 3.01807 10.9518 3.21929 11.2295ZM25.2857 18.4896V26.2545L24.875 26.2515L24.4643 26.2485L24.1081 25.6515C23.6924 24.9547 23.2112 24.4959 22.5424 24.1587L22.0719 23.9215L22.0724 22.8769C22.0734 20.4587 22.4151 17.5233 22.9275 15.5299C23.2476 14.2847 23.5386 13.478 23.9953 12.5701C24.4144 11.737 25.0841 10.7247 25.2161 10.7247C25.2609 10.7247 25.2857 13.4978 25.2857 18.4896ZM14.5482 26.0978C15.2493 27.2322 15.7037 28.0792 16.2056 29.1869C16.8174 30.5371 16.8129 30.4497 16.281 30.6436C15.7284 30.8451 14.8887 31.3747 14.384 31.8401L14 32.1942L13.616 31.8401C13.1113 31.3747 12.2716 30.8451 11.719 30.6436C11.1871 30.4497 11.1825 30.537 11.7946 29.1869C12.2596 28.1615 12.8133 27.1207 13.3918 26.1849C13.8921 25.3756 13.9569 25.2795 14.0027 25.2795C14.0246 25.2795 14.2701 25.6478 14.5482 26.0978ZM3.76871 29.4754C4.38186 30.6814 5.60079 31.6029 7.29 32.1377C7.50371 32.2054 7.7045 32.2837 7.73622 32.3118C7.768 32.34 7.72836 32.7044 7.64829 33.1216C7.53121 33.7316 7.35714 35.0845 7.35714 35.3848C7.35714 35.4201 6.35229 35.4471 5.03571 35.4471H2.71429V32.2204C2.71429 30.4457 2.73571 28.9728 2.76193 28.9473C2.78807 28.9217 2.95964 28.9008 3.14307 28.9008H3.47664L3.76871 29.4754ZM25.2686 32.1914L25.2871 35.4471H22.9717H20.6563L20.6169 35.1163C20.5952 34.9344 20.5574 34.5661 20.5329 34.298C20.5083 34.0299 20.4246 33.485 20.3468 33.0872C20.269 32.6893 20.2314 32.3405 20.2634 32.3123C20.2953 32.2839 20.4982 32.2054 20.7143 32.1378C21.3741 31.9315 22.3674 31.4386 22.8651 31.0706C23.5027 30.5992 23.8766 30.1614 24.2302 29.4722L24.5266 28.8944L24.8883 28.9151L25.25 28.9357L25.2686 32.1914ZM11.1208 33.3283C11.8135 33.7214 12.5714 34.725 12.5714 35.2493V35.4471H11.3571H10.1429L10.1433 35.1511C10.1436 34.8756 10.3015 33.7134 10.3994 33.2649C10.4371 33.0922 10.4662 33.0733 10.632 33.1131C10.7362 33.138 10.9561 33.2349 11.1208 33.3283ZM17.6019 33.2708C17.6988 33.715 17.8564 34.8774 17.8567 35.1511L17.8571 35.4471H16.6429H15.4286V35.2493C15.4286 34.6783 16.268 33.6221 17.0072 33.2629C17.4814 33.0326 17.5501 33.0335 17.6019 33.2708ZM12.64 40.2349L12.6372 42.3763L12.3256 42.0463C11.6604 41.3419 10.9316 40.0733 10.5669 38.9852C10.2426 38.0178 10.1635 38.0934 11.5 38.0934H12.6429L12.64 40.2349ZM17.6429 38.2264C17.6429 38.4679 17.2285 39.6011 16.9249 40.1899C16.5487 40.9192 16.0761 41.6209 15.6744 42.0463L15.3628 42.3763L15.36 40.2349L15.3571 38.0934H16.5C17.5773 38.0934 17.6429 38.1011 17.6429 38.2264Z" fill="white"/>
</svg>
