<svg width="40" height="40" viewBox="0 0 40 40" fill="none" xmlns="http://www.w3.org/2000/svg">
<circle cx="20" cy="20" r="20" fill="#F0552E"/>
<path fill-rule="evenodd" clip-rule="evenodd" d="M19.5548 22.2406C19.4161 22.1755 18.5814 21.3752 17.056 19.8448L14.7654 17.5469L15.4158 16.8916C15.7734 16.5312 16.1329 16.1877 16.2146 16.1284L16.3631 16.0204L17.6335 17.2911L18.9039 18.5617V13.7808V9H19.9974H21.0909V13.7808V18.5617L22.3665 17.2859L23.642 16.0101L24.4234 16.7908L25.2048 17.5715L22.9265 19.8572C21.4098 21.3788 20.5787 22.1755 20.44 22.2406C20.3254 22.2943 20.1263 22.3383 19.9974 22.3383C19.8685 22.3383 19.6694 22.2943 19.5548 22.2406ZM10.0004 21.9605C10.0008 25.0663 10.0153 25.3089 10.2404 25.9861C10.4612 26.6504 10.7523 27.1038 11.3278 27.6798C12.0686 28.4212 12.8079 28.8063 13.7783 28.9562C14.0243 28.9942 16.084 29.0071 20.2317 28.9964L26.3239 28.9807L26.6985 28.865C27.5218 28.6107 28.1373 28.2479 28.6799 27.6973C29.2553 27.1134 29.6055 26.5213 29.8461 25.7256C29.9625 25.3409 29.9646 25.2849 29.9822 22.169L30 19.0032H28.8795H27.759L27.7444 22.0647L27.7298 25.1263L27.5639 25.4766C27.3335 25.9636 26.9934 26.3102 26.5135 26.5476L26.121 26.7418H20.0001H13.8792L13.5291 26.5758C13.0426 26.3451 12.6962 26.0049 12.459 25.5246L12.265 25.1319L12.2504 22.0675L12.2358 19.0032H11.1179H10L10.0004 21.9605Z" fill="white"/>
</svg>
